<svg width="119" height="32" viewBox="0 0 119 32" fill="none" xmlns="http://www.w3.org/2000/svg">
<g clip-path="url(#clip0_13_590)">
<path d="M0 16V32H32V-3.8147e-05H0V16Z" fill="#FEFFFD"/>
<path d="M14.9713 2.06846C13.8284 2.20561 12.7313 2.46846 11.4513 2.92561L10.3884 3.31418L10.1484 3.54275C10.0113 3.66846 9.86273 3.78275 9.80559 3.78275C9.75987 3.79418 9.66845 3.80561 9.59987 3.81704C9.54273 3.81704 9.40559 3.94275 9.31416 4.07989L9.1313 4.34275H8.74273L8.28559 4.75418C7.47416 5.49704 6.92559 6.04561 6.58273 6.45704L6.2513 6.85704H5.9313L6.0113 6.98275L6.07987 7.10847L5.80559 7.40561C5.42845 7.82846 4.91416 8.61703 4.91416 8.77703C4.91416 8.84561 4.78845 9.14275 4.62845 9.43989C4.46845 9.73704 4.34273 10.0456 4.34273 10.1256C4.34273 10.217 4.29702 10.2856 4.22845 10.2856H4.11416V10.5142C4.11416 10.6399 3.98845 11.1085 3.8513 11.5656C3.70273 12.0227 3.50845 12.857 3.43987 13.4285L3.2913 14.457L3.35987 15.657C3.4513 17.2113 3.5313 17.9427 3.65702 18.2285C3.7713 18.4913 4.31987 20.1827 4.39987 20.5027C4.42273 20.617 4.52559 20.7999 4.62845 20.9142C4.87987 21.1885 4.84559 21.2913 4.35416 21.9885L3.91987 22.617L3.82845 22.537L3.73702 22.457L3.80559 22.5827L3.88559 22.7199L3.62273 23.2113C3.47416 23.4856 3.16559 24.2513 2.92559 24.9142L2.50273 26.1142L2.21702 27.4627C2.06845 28.1942 1.90845 29.1199 1.87416 29.5199L1.81702 30.2285L1.98845 30.0113L2.1713 29.7827V29.1313L2.2513 29.177L2.34273 29.2342L2.36559 28.857L2.37702 28.4799L2.8113 27.4513L3.24559 26.4227L3.35987 26.4799L3.46273 26.5485L3.38273 26.4113L3.2913 26.2742L3.78273 25.5427L4.27416 24.7999L4.37702 24.937L4.47987 25.0856L4.42273 24.9142L4.37702 24.7427L5.11987 24.0227C5.5313 23.6342 5.94273 23.3142 6.02273 23.3142H6.18273L6.12559 23.4056L6.06845 23.497L6.93702 24.297C7.41702 24.7313 7.96559 25.2227 8.14845 25.3942C8.3313 25.577 8.53702 25.7142 8.58273 25.7142C8.63987 25.7142 8.68559 25.7827 8.68559 25.8513V25.9999L10.1484 26.7085C10.9484 27.097 11.7142 27.4513 11.8513 27.4856C11.977 27.5199 12.1599 27.6227 12.2284 27.7142L12.3656 27.8856H12.7313C12.9256 27.8856 13.2684 27.9313 13.4856 27.9999C13.7027 28.057 14.4456 28.1599 15.1427 28.217L16.3999 28.3313L17.7713 28.217L19.1427 28.1027L19.4513 27.9427C19.6113 27.8513 19.8856 27.7713 20.0342 27.7713C20.1942 27.7713 20.3656 27.7256 20.3999 27.657C20.4342 27.5999 20.5713 27.5427 20.6856 27.5427C20.8113 27.5427 21.1313 27.417 21.417 27.257C21.7027 27.097 21.977 26.9713 22.0456 26.9713C22.1713 26.9713 22.7427 26.617 23.5084 26.057C23.7713 25.8742 24.0342 25.7142 24.0913 25.7142C24.1484 25.7142 24.3199 25.5999 24.4799 25.4627C24.6284 25.3142 25.0399 24.937 25.3827 24.6285C25.7256 24.3085 26.2056 23.7599 26.4456 23.3942C26.697 23.0399 26.937 22.7427 26.9942 22.7427C27.0399 22.7427 27.0856 22.6627 27.0856 22.5713C27.0856 22.4799 27.1427 22.3999 27.1999 22.3999C27.2684 22.3999 27.3142 22.3199 27.3142 22.2285C27.3142 22.1485 27.3942 22.0227 27.497 21.9656C27.5999 21.9085 27.6799 21.817 27.6799 21.7599C27.6913 21.6456 27.9427 21.0856 28.1027 20.7999C28.2742 20.5027 28.7084 19.177 28.9942 18.1142L29.257 17.0856L29.2799 15.5427L29.2913 13.9999L29.097 12.7542C28.9942 12.057 28.8342 11.337 28.7542 11.1542C28.217 9.90846 27.9999 9.37132 27.8856 8.93704L27.7599 8.45704H27.5313L27.6113 8.31989L27.6913 8.19418L27.577 8.26275L27.4627 8.34275L27.097 7.75989C26.9027 7.43989 26.7427 7.15418 26.7427 7.11989C26.7427 7.09704 26.8456 6.93704 26.9599 6.78846L27.177 6.51418L27.2342 6.62846L27.3027 6.74275L27.2684 6.60561C27.2456 6.52561 27.3256 6.27418 27.4284 6.05704C27.5427 5.83989 27.7256 5.34846 27.8399 4.97132C27.9542 4.59418 28.0799 4.26275 28.1142 4.22846C28.1942 4.14846 28.217 3.42846 28.137 3.42846C28.1027 3.42846 27.8056 3.70275 27.4856 4.03418L26.9142 4.65132L26.0913 5.09704L25.2684 5.54275L24.8913 5.18847C24.3999 4.71989 23.3713 3.99989 22.7999 3.71418C22.5484 3.58846 22.297 3.42846 22.2513 3.34846L22.1599 3.19989H21.8856C21.737 3.19989 21.5884 3.16561 21.5656 3.10847C21.5084 3.03989 20.5827 2.70847 19.4742 2.38846C19.2799 2.33132 18.9713 2.28561 18.7884 2.28561C18.5942 2.28561 18.3999 2.23989 18.3427 2.18275L18.2284 2.07989L17.0284 2.02275L15.8284 1.96561L14.9713 2.06846ZM27.657 4.92561C27.5313 5.32561 27.2456 5.97704 27.0056 6.36561L26.5827 7.08561L26.377 7.15418C26.2627 7.18847 26.1142 7.31418 26.057 7.43989L25.9313 7.65704H25.5999V7.96561L25.017 8.33132C24.697 8.52561 24.3542 8.68561 24.2399 8.68561C24.137 8.68561 23.9427 8.76561 23.817 8.85703C23.7027 8.94846 23.5199 9.02846 23.417 9.02846C23.3142 9.02846 23.0742 9.10846 22.8913 9.19989C22.697 9.30275 22.3427 9.39418 22.1027 9.42846C21.8513 9.45132 21.2456 9.55418 20.7427 9.65704C20.2399 9.74846 18.9256 9.90846 17.8284 9.99989C16.7313 10.0913 15.4856 10.217 15.0627 10.2856C14.6399 10.3428 14.0913 10.3999 13.8399 10.3999H13.3827L13.3142 10.5256L13.2342 10.6513L12.7542 10.5942L12.2856 10.537L12.1142 10.6856C11.9542 10.8342 11.3599 11.017 10.5942 11.1656C10.4227 11.1999 10.2856 11.2685 10.2856 11.3256V11.417L10.1142 11.3599L9.94273 11.2913V11.5313L9.74845 11.4627L9.56559 11.3942L9.64559 11.5199L9.71416 11.6456L9.59987 11.7142L9.48559 11.7827L9.25702 11.657L9.02845 11.5427L9.09702 11.7027L9.16559 11.8627L8.92559 12.1027C8.71987 12.3085 8.34273 12.4342 8.34273 12.3085C8.34273 12.1027 8.77702 11.097 8.93702 10.9256C9.0513 10.7999 9.14273 10.6056 9.14273 10.5028V10.297L9.35987 10.2285L9.58845 10.1599L9.65702 9.93132L9.73702 9.70275L10.057 9.64561L10.3656 9.57704L10.3542 9.39418L10.3427 9.19989L10.6056 9.16561L10.8684 9.11989L10.937 8.95989L10.9942 8.79989H11.1999C11.3142 8.79989 11.4856 8.71989 11.577 8.62846C11.7599 8.45704 12.3084 8.27418 12.5599 8.33132L12.7084 8.35418L12.6399 8.25132L12.5713 8.13704L12.7542 8.06846C12.857 8.03418 13.0742 7.99989 13.257 7.99989C13.4284 7.99989 13.7484 7.91989 13.9656 7.82846L14.3656 7.66846L14.7656 7.72561L15.1656 7.79418L15.3256 7.63418L15.4856 7.47418L16.5713 7.31418C17.1656 7.22275 17.8856 7.15418 18.1599 7.15418L18.6513 7.17704L18.5142 7.08561L18.3656 6.99418L19.1084 6.98275C19.5199 6.98275 20.2056 6.90275 20.6399 6.81132C21.0742 6.71989 21.737 6.61703 22.1142 6.57132C22.4913 6.52561 22.8913 6.43418 23.017 6.37704C23.2113 6.27418 24.1942 6.06846 24.7656 6.02275C24.8913 6.01132 24.9827 5.96561 24.9713 5.93132C24.9484 5.89704 25.3827 5.64561 25.9542 5.37132C26.5142 5.10847 26.9713 4.83418 26.9713 4.78847C26.9713 4.73132 27.0284 4.68561 27.0856 4.68561C27.1542 4.68561 27.337 4.54846 27.5084 4.38846C27.6684 4.22846 27.817 4.12561 27.8399 4.14846C27.8627 4.17132 27.7827 4.52561 27.657 4.92561ZM26.6056 10.3999L26.4799 10.8685L26.2399 10.7999L25.9999 10.7313L26.1942 10.8913L26.3884 11.0513L26.1599 11.5199C26.0227 11.7827 25.8742 11.9999 25.8284 11.9999C25.7827 11.9999 25.6799 12.1485 25.5999 12.3427L25.4627 12.6742L25.2342 12.7542L25.017 12.8228L24.9142 13.097L24.8113 13.3599L24.3999 13.5313C24.1827 13.6227 23.9999 13.7485 23.9999 13.8056C23.9999 13.8627 23.7713 13.977 23.4856 14.057C23.2113 14.137 22.9142 14.2742 22.8456 14.3542L22.7199 14.5142H22.3884C22.217 14.5142 22.0456 14.5599 22.0113 14.617C21.977 14.6627 21.7599 14.7542 21.5199 14.7999C21.2799 14.8342 20.857 14.9256 20.5713 14.9827C19.337 15.2456 18.1599 15.3942 17.2227 15.417C16.6627 15.4285 16.1484 15.4627 16.0799 15.4856C15.8627 15.5656 11.657 16.0342 11.1199 16.0456H10.6284V16.297L9.9313 16.4456L9.24559 16.6056L8.85702 16.857C8.6513 17.0056 8.37702 17.1542 8.23987 17.1999L7.99987 17.2685L8.05702 17.3827L8.12559 17.4856H7.98845C7.90844 17.4856 7.71416 17.5999 7.56559 17.737L7.27987 17.9999L7.34844 17.7142C7.39416 17.5542 7.42845 17.3485 7.42845 17.2342V17.0513L7.80559 17.097L8.1713 17.1427L7.91987 17.0056C7.7713 16.937 7.65702 16.8342 7.65702 16.777C7.65702 16.6742 7.89702 16.1713 8.26273 15.4856L8.45702 15.1427H8.7313L8.79987 14.8799C8.83416 14.7313 8.8913 14.617 8.94845 14.617C9.19987 14.6399 9.25702 14.617 9.25702 14.457V14.2856L9.40559 14.2742C9.47416 14.2627 9.58845 14.2627 9.63416 14.2742L9.72559 14.2856L9.66845 14.1827L9.59987 14.0799L10.1942 13.7713C10.5142 13.5999 11.017 13.3942 11.3027 13.3142C11.7942 13.177 12.3084 13.0056 12.857 12.7885C12.9827 12.7428 13.3142 12.6742 13.5999 12.6399C13.8856 12.6056 14.4799 12.5256 14.9142 12.4685C15.3599 12.3999 15.897 12.377 16.1142 12.3999L16.5142 12.457L16.2856 12.3542L16.057 12.2399H16.7427C18.1484 12.217 22.6284 11.7027 23.1999 11.4856L23.6113 11.337L23.9313 11.3942L24.2513 11.4627L24.3313 11.3485C24.3656 11.2913 24.697 11.1085 25.0627 10.937C25.4284 10.7656 25.8399 10.5142 25.977 10.3885C26.1142 10.2513 26.3313 10.1027 26.457 10.057C26.5827 9.99989 26.697 9.95418 26.697 9.95418C26.7084 9.94275 26.6627 10.1485 26.6056 10.3999ZM26.1713 15.5199C26.1713 15.7713 25.8627 16.4227 25.7027 16.5142C25.6456 16.5599 25.5999 16.697 25.5999 16.8342V17.097L25.3713 17.2913C25.2456 17.3942 25.1427 17.5542 25.1427 17.6342C25.1427 17.897 23.657 19.3142 23.3827 19.3142C23.3256 19.3142 23.1884 19.3942 23.0742 19.497C22.9027 19.657 22.6856 19.737 22.3656 19.7599L22.2742 19.7713L22.3427 19.8742L22.3999 19.977L22.0342 20.0913C21.8284 20.1485 21.3599 20.2627 21.0056 20.3427L20.3656 20.4913L19.7942 20.4113L19.2113 20.3427L19.1313 20.4685L19.0513 20.6056L19.177 20.5256L19.3142 20.4456V20.6856L19.0056 20.697C18.8227 20.7085 18.5027 20.7313 18.2856 20.7427C16.7199 20.8685 12.7999 21.0056 12.5942 20.9485L12.3427 20.8913V21.1199L11.3484 21.1999L10.3427 21.2685L9.8513 21.4513L9.35987 21.6227L9.14273 21.5656L8.92559 21.5085L8.71987 21.6456C8.44559 21.8285 7.16559 22.2856 6.92559 22.2856H6.7313L6.78844 22.3885L6.85702 22.4913L6.45702 22.6742C6.23987 22.777 6.05702 22.9027 6.05702 22.9485C6.05702 22.9942 5.90845 23.1199 5.72559 23.2342C5.26845 23.5085 4.12559 24.7085 3.73702 25.3256L3.41702 25.8399L3.2913 25.7599L3.16559 25.6799L3.24559 25.8056L3.31416 25.9313L2.95987 26.5942C2.76559 26.9599 2.54845 27.3027 2.4913 27.3713L2.36559 27.4856L2.44559 27.257C2.4913 27.1313 2.58273 26.7542 2.6513 26.4342L2.77702 25.8285L2.8913 25.9085L3.00559 25.977L2.92559 25.8513L2.84559 25.7256L2.98273 25.2113L3.10845 24.6856H3.22273C3.27987 24.6856 3.30273 24.6399 3.26845 24.5942C3.23416 24.537 3.48559 23.9656 3.81702 23.3027L4.4113 22.1142L4.66273 21.9999L4.91416 21.8856L4.87987 21.7713L4.83416 21.657L5.70273 20.7885C6.18273 20.3085 6.7313 19.8399 6.92559 19.737C7.11987 19.6342 7.31416 19.4742 7.34844 19.3713L7.41702 19.1999H7.64559C7.7713 19.1999 7.90844 19.1427 7.94273 19.0856C8.06845 18.8799 9.59987 18.297 10.5142 18.1142C10.7313 18.0685 10.9827 17.9885 11.0856 17.9313C11.177 17.8856 12.1599 17.7599 13.2684 17.657L15.2799 17.4856H17.3827C18.537 17.4856 20.2742 17.4285 21.2342 17.3485L22.9713 17.2227V17.0285H23.3484C23.5656 17.0285 23.7713 16.9942 23.817 16.9485C23.8627 16.9027 23.9884 16.857 24.0913 16.857H24.2856L24.2627 16.7313L24.2399 16.6056L24.7999 16.3427C25.1199 16.1942 25.3713 16.0342 25.3713 15.977C25.3713 15.9313 25.4742 15.8856 25.5999 15.8856H25.8284L25.8399 15.7713C25.8513 15.7027 25.8742 15.5999 25.8856 15.5427C25.897 15.4742 25.9199 15.4056 25.9313 15.3713C25.9313 15.337 25.9999 15.3142 26.057 15.3142H26.1713V15.5199ZM23.7713 17.7142C23.7713 17.7713 23.8284 17.8285 23.8856 17.8285C23.9542 17.8285 23.9999 17.7713 23.9999 17.7142C23.9999 17.6456 23.9542 17.5999 23.8856 17.5999C23.8284 17.5999 23.7713 17.6456 23.7713 17.7142ZM21.9427 19.6685V19.7827L22.057 19.7142C22.1256 19.6799 22.1713 19.6227 22.1713 19.5885C22.1713 19.5656 22.1256 19.5427 22.057 19.5427C21.9999 19.5427 21.9427 19.5999 21.9427 19.6685ZM6.62845 5.59989C6.62845 5.65704 6.70845 5.71418 6.8113 5.71418H6.98273L6.91416 5.59989C6.87987 5.53132 6.79987 5.48561 6.7313 5.48561C6.67416 5.48561 6.62845 5.53132 6.62845 5.59989Z" fill="#F6FDE1"/>
<path d="M15.3715 2.13709C15.1886 2.15995 14.5372 2.25138 13.9429 2.35423L12.8572 2.53709L11.8629 2.91423C10.64 3.39423 10.3543 3.5428 9.18861 4.30852L8.25147 4.91423L7.4629 5.69138C4.99433 8.12566 3.65718 11.0399 3.4629 14.4799L3.39433 15.6457L3.53147 16.7085C3.73718 18.2057 4.41147 20.4685 4.84576 21.0514L4.99433 21.2571L5.72576 20.5599C6.12576 20.1828 6.80004 19.6342 7.2229 19.3599L7.98861 18.8571L8.99433 18.4685C10.0915 18.0457 11.1658 17.7942 12.7429 17.5999L13.7715 17.4742L17.7715 17.3714L21.7715 17.2685L22.2972 17.1542C22.5943 17.0857 23.1543 16.9371 23.5543 16.7999L24.2858 16.5599L24.9715 16.0914L25.6572 15.6342L26.0343 15.1657L26.4229 14.6971L26.3429 15.1428C26.2972 15.3942 26.1029 15.9885 25.9086 16.4571L25.5543 17.3142L25.1315 17.8971C24.5486 18.6857 23.76 19.3371 22.8686 19.7714L22.1258 20.1371L21.0858 20.3999C19.8172 20.7199 18.4572 20.8799 16.1715 20.9714C11.0058 21.1657 8.2629 21.6799 6.56004 22.7542L6.0229 23.1085L6.12576 23.1771C6.1829 23.2228 6.49147 23.5542 6.80004 23.9199C8.35433 25.7714 10.8572 27.2342 13.6 27.8857L14.6858 28.1485H17.8858L18.5943 28.0114C20.32 27.6799 21.8286 27.0628 23.4286 26.0114L24.5486 25.2799L25.3829 24.4342L26.2286 23.5885L26.8343 22.7199C27.1543 22.2399 27.6572 21.3599 27.9429 20.7771L28.4686 19.7028L28.7429 18.6742L29.0286 17.6571L29.1658 16.4342L29.3029 15.2228L29.1658 13.9085L29.0286 12.5942L28.7315 11.5771C28.2972 10.0457 27.5886 8.61709 26.6058 7.26852L26.5258 7.15423L25.9772 7.66852C25.2458 8.35423 24.3658 8.83423 23.1315 9.24566L22.1143 9.57709L20.9143 9.77138C20.2515 9.87423 18.56 10.0571 17.1429 10.1828C14.1029 10.4457 12.3886 10.7199 11.1429 11.1428L10.2286 11.4399L9.56576 11.8514C9.20004 12.0685 8.7429 12.3885 8.54861 12.5485L8.19433 12.8571L8.27433 12.3657C8.36576 11.7257 8.91433 10.5599 9.32576 10.0685C9.50861 9.8628 9.96576 9.4628 10.3429 9.19995L11.0286 8.71995L11.8858 8.36566C12.8458 7.97709 14.7315 7.48566 15.9429 7.31423C16.3886 7.25709 17.5429 7.09709 18.5143 6.97138C21.7029 6.55995 23.4629 6.23995 24.6058 5.87423L25.1543 5.69138L24.9486 5.4628C24.3315 4.75423 22.5029 3.6228 20.9715 2.98281C19.3715 2.31995 16.9143 1.9428 15.3715 2.13709ZM26.8 10.2514C26.6972 10.6057 26.4572 11.1999 26.2743 11.5771L25.9315 12.2514L25.4515 12.7657C24.2629 14.0571 22.4115 14.8685 19.8515 15.2457C19.2115 15.3485 17.4286 15.5199 15.8858 15.6571C12.1715 15.9657 11.04 16.1485 9.60004 16.7085C8.94861 16.9599 7.89718 17.5999 7.65718 17.8857C7.57718 17.9771 7.4629 18.0571 7.39433 18.0571H7.28004L7.34861 17.4514L7.42861 16.8571L7.81718 16.0571C8.38861 14.9257 8.99433 14.3199 10.2858 13.6228C11.8172 12.7999 14 12.3771 18.5715 11.9999C19.4515 11.9314 20.7543 11.7942 21.4629 11.7028L22.7429 11.5314L23.7372 11.2457C24.2858 11.0857 25.0286 10.7999 25.3829 10.6171L26.0229 10.2742L26.4686 9.81709L26.9143 9.35995L26.9486 9.47423C26.9715 9.5428 26.9029 9.88566 26.8 10.2514ZM1.95433 29.2571C1.88576 29.5771 1.82861 29.8971 1.82861 29.9771L1.84004 30.1142L1.93147 29.9428C2.05718 29.7371 2.22861 28.6857 2.13718 28.6857C2.1029 28.6857 2.0229 28.9485 1.95433 29.2571Z" fill="#DBF0AE"/>
<path d="M14.1141 2.35429C9.25699 3.22286 5.37128 6.78857 3.96556 11.6571L3.67985 12.6286L3.55414 13.8514L3.41699 15.0743L3.54271 16.3086L3.66842 17.5429L3.89699 18.4C4.01128 18.8686 4.30842 19.7029 4.52556 20.2514L4.94842 21.2571L5.88556 20.3657L6.83414 19.4629L7.75985 18.9829C9.43985 18.1143 10.9027 17.7257 13.4284 17.4857L14.6856 17.3714H19.5998L20.857 17.2571L22.1141 17.1314L23.017 16.9029C24.0913 16.6286 24.5598 16.4 25.337 15.7943L25.9084 15.3371L26.1713 14.9143C26.3084 14.6857 26.4456 14.5257 26.4798 14.56C26.5827 14.6514 26.057 16.3543 25.7256 17.0057C25.5427 17.36 25.177 17.92 24.9256 18.2514L24.4456 18.8457L23.6798 19.3486L22.9141 19.8629L22.1141 20.1486C20.5141 20.72 19.3713 20.8571 14.0113 21.1429L11.737 21.2686L10.7541 21.44C9.26842 21.6914 8.15985 22.0229 7.11985 22.5257L6.17128 22.9829V23.0971C6.17128 23.1657 6.65128 23.7029 7.23413 24.2857L8.29699 25.3486L9.29128 26C10.857 27.0171 12.2856 27.5886 14.1713 27.9543L15.0284 28.1143H16.2856C18.4113 28.1143 20.1256 27.7143 22.0113 26.7886L23.0513 26.2743L24.0341 25.5314L25.0056 24.8L25.7027 24.0343C27.3827 22.2057 28.6398 19.6343 29.0284 17.2343L29.177 16.3429L29.1084 14.6057L29.0513 12.8571L28.7541 11.7714L28.457 10.6857L27.9313 9.6C27.417 8.52572 26.6627 7.31429 26.5141 7.31429C26.4684 7.31429 26.3656 7.39429 26.2741 7.49715C26.1941 7.6 25.8056 7.90858 25.4056 8.19429L24.6856 8.70857L23.737 9.08572L22.7884 9.45143L21.577 9.70286L20.3656 9.94286L17.2341 10.2286L14.1141 10.5143L12.937 10.7429C10.9713 11.1314 9.87414 11.5771 8.86842 12.3886C8.50271 12.6857 8.19414 12.9143 8.17128 12.8914C8.06842 12.7886 8.38842 11.6343 8.68556 11.0057L9.03985 10.2971L9.63413 9.71429L10.2284 9.12L11.3713 8.57143L12.5141 8.01143L13.4284 7.78286C14.7084 7.46286 16.5827 7.15429 19.3141 6.8C22.2627 6.42286 25.0284 5.86286 25.0284 5.64572C25.0284 5.56572 24.2741 4.91429 23.6684 4.48C23.3827 4.26286 22.6513 3.85143 22.057 3.54286L20.9598 2.99429L19.9998 2.70857C19.4627 2.54857 18.6627 2.36572 18.2056 2.29715L17.3827 2.17143L16.2056 2.18286L15.0284 2.19429L14.1141 2.35429ZM26.9256 9.96572C26.8227 10.3543 26.5598 11.04 26.3541 11.4857L25.9656 12.2857L25.5427 12.7771C24.7084 13.7371 23.2456 14.5371 21.497 14.9829C20.1827 15.3257 18.8227 15.4857 15.1198 15.7714C11.2113 16.0571 9.19985 16.6286 7.72556 17.8629L7.16556 18.3314L7.24556 17.7257C7.34842 16.9486 7.65699 16.1486 8.11413 15.4286L8.47985 14.8571L9.00556 14.4229C10.0456 13.5657 11.0513 13.1086 12.7998 12.6971C14.1256 12.3771 15.0513 12.2629 18.0798 12C21.2684 11.7143 22.1484 11.6 23.5084 11.2571L24.5713 10.9829L25.257 10.6171L25.9427 10.2514L26.4913 9.70286C26.7884 9.40572 27.0398 9.17715 27.0627 9.2C27.0856 9.22286 27.017 9.56572 26.9256 9.96572Z" fill="#B5D074"/>
<path d="M14.4575 2.39997C13.269 2.58283 12.6175 2.7314 12.2861 2.90283C12.1032 3.00569 11.8747 3.08569 11.7832 3.08569C11.5204 3.08569 9.82896 3.98854 8.94896 4.59426L8.11467 5.16569L7.1661 6.1714C6.35467 7.02855 5.4861 8.11426 5.4861 8.28569C5.4861 8.31997 5.33753 8.58283 5.15467 8.87997C4.72039 9.57712 4.19467 10.9257 3.86325 12.1371L3.61182 13.0857V17.2L3.85182 18.1257C4.08039 19.0057 4.69753 20.6971 4.89182 21.0057L4.98325 21.1428L5.66896 20.48C7.26896 18.9257 9.02896 18.1028 11.8861 17.6114L13.2004 17.3828L16.629 17.3143C21.7718 17.2114 22.9375 17.0628 24.4004 16.3314C25.189 15.9314 25.4518 15.7028 26.069 14.9371L26.5147 14.3771V14.6285C26.5147 15.1314 26.2404 15.9771 25.7604 16.9828L25.269 18.0343L24.6061 18.6857L23.9432 19.3485L22.9147 19.84C22.3432 20.1143 21.5775 20.4114 21.2118 20.5028C20.1032 20.8 18.0575 21.0171 15.2575 21.1428C11.7147 21.3028 10.8918 21.4057 8.6861 21.9428C8.41182 22.0114 7.74896 22.2743 7.22325 22.5143L6.26325 22.9714L6.30896 23.0971C6.46896 23.5885 8.16039 25.1885 9.33753 25.9771C10.069 26.4685 11.7261 27.28 12.2061 27.3828C12.3775 27.4171 12.6175 27.4857 12.7432 27.5314C13.3147 27.76 14.2175 27.9085 15.4861 28C16.2404 28.0457 16.8918 28.0685 16.9375 28.0457C16.9718 28.0228 17.2347 28 17.509 27.9885C18.469 27.9771 20.6632 27.3943 21.7147 26.8685C23.2575 26.0914 23.8861 25.6571 25.0175 24.6171L25.8747 23.8285L26.549 22.9143L27.2347 22L27.8404 20.7428L28.4461 19.4857L28.7547 18.3428L29.0632 17.2L29.0747 15.2V13.2L28.8118 12.1828C28.3547 10.4343 27.1318 7.82854 26.5947 7.49712L26.4347 7.39426L26.1032 7.70283C25.2232 8.53712 24.1832 9.07426 22.5147 9.54283L21.4861 9.82854L19.5775 10.0571C18.5147 10.1714 16.8347 10.3543 15.829 10.4457C12.949 10.7314 11.9775 10.9028 10.7432 11.3943C9.8861 11.7371 9.4061 12.0228 8.6861 12.6285L8.17182 13.0628L8.1261 12.8571C8.11467 12.7428 8.18325 12.3085 8.29753 11.8971L8.49182 11.1428L8.85753 10.5714C9.05182 10.2514 9.4861 9.75997 9.8061 9.47426L10.389 8.94855L11.1661 8.58283C11.8747 8.23997 12.6861 7.95426 14.229 7.50854C14.549 7.41712 15.1432 7.30283 15.5661 7.25712L16.3318 7.18855L16.2632 6.99426L16.1832 6.79997L16.3547 6.93712L16.5375 7.08569L18.4118 6.85712C19.4404 6.7314 20.6747 6.58283 21.1432 6.51426C22.8918 6.26283 24.9147 5.7714 24.9147 5.59997C24.9147 5.4514 23.6347 4.51426 22.6861 3.95426C21.7947 3.41712 20.3204 2.82283 19.6004 2.69712C19.349 2.6514 18.9261 2.53712 18.6518 2.44569L18.1604 2.28569L16.5947 2.29712C15.7375 2.30854 14.7775 2.35426 14.4575 2.39997ZM26.9032 10.2628C26.8004 10.6171 26.5261 11.2685 26.2975 11.7028L25.8975 12.4914L25.2918 13.0857C24.9604 13.4057 24.3661 13.8628 23.9775 14.0914L23.2575 14.5257L22.3547 14.8114C21.269 15.1543 19.2232 15.4971 17.6918 15.6114C17.0747 15.6571 16.5718 15.7257 16.5718 15.76C16.5718 15.8057 16.3775 15.8171 16.1375 15.7943C15.909 15.7714 14.8918 15.8285 13.909 15.9314L12.1032 16.1143L11.1204 16.3428C9.4861 16.7428 8.2861 17.3257 7.50896 18.1143C7.33753 18.2857 7.1661 18.4114 7.13182 18.3771C7.10896 18.3428 7.15467 17.9314 7.2461 17.4743L7.42896 16.6285L7.77182 15.9314L8.1261 15.2457L8.6061 14.7428C10.2061 13.0971 12.4461 12.4228 17.8861 11.9428C21.2232 11.6571 22.1947 11.5314 23.3147 11.2457L24.4004 10.9714L25.1432 10.6057L25.8747 10.2285L26.4575 9.65712L27.029 9.07426L27.0632 9.34855C27.0861 9.49712 27.0175 9.90854 26.9032 10.2628ZM18.2061 27.8514C18.1261 27.8743 17.989 27.8743 17.9204 27.8514L17.7718 27.7943H18.3432L18.2061 27.8514Z" fill="#3B6BDD"/>
</g>
<path d="M42.3963 25.384C40.7323 25.384 39.2496 24.9893 37.9483 24.2C36.6469 23.4107 35.6229 22.3333 34.8763 20.968C34.1296 19.5813 33.7563 18.0347 33.7563 16.328C33.7563 14.6 34.1189 13.064 34.8443 11.72C35.5909 10.376 36.5936 9.32 37.8523 8.552C39.1323 7.76267 40.5616 7.368 42.1403 7.368C43.4203 7.368 44.5509 7.60267 45.5323 8.072C46.5349 8.52 47.3776 9.13867 48.0603 9.928C48.7643 10.696 49.2976 11.5813 49.6603 12.584C50.0443 13.5653 50.2362 14.5893 50.2362 15.656C50.2362 15.8907 50.2149 16.1573 50.1723 16.456C50.1509 16.7333 50.1189 17 50.0763 17.256H35.9323V14.696H48.3483L46.9403 15.848C47.1323 14.7387 47.0256 13.7467 46.6203 12.872C46.2149 11.9973 45.6176 11.304 44.8283 10.792C44.0389 10.28 43.1429 10.024 42.1403 10.024C41.1376 10.024 40.2203 10.28 39.3883 10.792C38.5563 11.304 37.9056 12.04 37.4363 13C36.9883 13.9387 36.8069 15.0587 36.8923 16.36C36.8069 17.6187 36.9989 18.728 37.4683 19.688C37.9589 20.6267 38.6416 21.3627 39.5163 21.896C40.4123 22.408 41.3829 22.664 42.4283 22.664C43.5803 22.664 44.5509 22.3973 45.3403 21.864C46.1296 21.3307 46.7696 20.648 47.2603 19.816L49.7563 21.096C49.4149 21.8853 48.8816 22.6107 48.1562 23.272C47.4523 23.912 46.6096 24.424 45.6283 24.808C44.6683 25.192 43.5909 25.384 42.3963 25.384ZM51.852 25L57.9 16.36L51.884 7.752H55.468L60.62 15.24H58.796L63.884 7.752H67.5L61.484 16.36L67.468 25H63.884L58.796 17.512H60.588L55.5 25H51.852ZM70.1478 31.4V7.752H73.0598V11.464L72.6758 10.728C73.3158 9.704 74.1904 8.89333 75.2998 8.296C76.4091 7.67733 77.6784 7.368 79.1078 7.368C80.7291 7.368 82.1798 7.76267 83.4598 8.552C84.7611 9.34133 85.7851 10.4187 86.5318 11.784C87.2784 13.128 87.6518 14.664 87.6518 16.392C87.6518 18.0773 87.2784 19.6027 86.5318 20.968C85.7851 22.3333 84.7611 23.4107 83.4598 24.2C82.1798 24.9893 80.7184 25.384 79.0758 25.384C77.6891 25.384 76.4198 25.0747 75.2678 24.456C74.1371 23.8373 73.2624 22.9627 72.6438 21.832L73.1238 21.32V31.4H70.1478ZM78.8518 22.504C79.9398 22.504 80.9104 22.2373 81.7638 21.704C82.6171 21.1707 83.2784 20.4453 83.7478 19.528C84.2384 18.5893 84.4838 17.544 84.4838 16.392C84.4838 15.1973 84.2384 14.152 83.7478 13.256C83.2784 12.3387 82.6171 11.6133 81.7638 11.08C80.9104 10.5253 79.9398 10.248 78.8518 10.248C77.7638 10.248 76.7824 10.5147 75.9078 11.048C75.0544 11.5813 74.3718 12.3173 73.8598 13.256C73.3691 14.1733 73.1238 15.2187 73.1238 16.392C73.1238 17.544 73.3691 18.5893 73.8598 19.528C74.3718 20.4453 75.0544 21.1707 75.9078 21.704C76.7824 22.2373 77.7638 22.504 78.8518 22.504ZM96.61 25.384C95.4793 25.384 94.4767 25.1813 93.602 24.776C92.7487 24.3493 92.0767 23.7733 91.586 23.048C91.0953 22.3013 90.85 21.448 90.85 20.488C90.85 19.5707 91.042 18.7493 91.426 18.024C91.8313 17.2773 92.45 16.648 93.282 16.136C94.1353 15.624 95.202 15.2613 96.482 15.048L102.882 13.992V16.488L97.154 17.448C96.0447 17.64 95.234 17.992 94.722 18.504C94.2313 19.016 93.986 19.6453 93.986 20.392C93.986 21.096 94.2633 21.6827 94.818 22.152C95.394 22.6213 96.1087 22.856 96.962 22.856C98.05 22.856 98.9887 22.632 99.778 22.184C100.589 21.7147 101.218 21.0853 101.666 20.296C102.135 19.5067 102.37 18.632 102.37 17.672V13.288C102.37 12.3493 102.018 11.592 101.314 11.016C100.631 10.4187 99.7247 10.12 98.594 10.12C97.6127 10.12 96.738 10.376 95.97 10.888C95.2233 11.3787 94.6687 12.04 94.306 12.872L91.714 11.528C92.034 10.7387 92.546 10.0347 93.25 9.416C93.954 8.776 94.7753 8.27467 95.714 7.912C96.6527 7.54933 97.634 7.368 98.658 7.368C99.9807 7.368 101.143 7.624 102.146 8.136C103.149 8.62667 103.927 9.32 104.482 10.216C105.058 11.0907 105.346 12.1147 105.346 13.288V25H102.434V21.736L102.978 21.928C102.615 22.6107 102.125 23.208 101.506 23.72C100.887 24.232 100.162 24.6373 99.33 24.936C98.498 25.2347 97.5913 25.384 96.61 25.384ZM109.96 25V7.752H112.872V10.92L112.552 10.472C112.958 9.49067 113.576 8.76533 114.408 8.296C115.24 7.80533 116.254 7.56 117.448 7.56H118.504V10.376H117C115.784 10.376 114.803 10.76 114.056 11.528C113.31 12.2747 112.936 13.3413 112.936 14.728V25H109.96Z" fill="black"/>
<defs>
<clipPath id="clip0_13_590">
<rect width="32" height="32" fill="white"/>
</clipPath>
</defs>
</svg>
